<svg width="26" height="25" viewBox="0 0 26 25" fill="none" xmlns="http://www.w3.org/2000/svg">
<path d="M16.75 23.2269H21.3035C21.7471 23.2269 22.1071 22.8669 22.1071 22.4234V12.7805H22.1403C21.9614 12.6916 21.7921 12.5823 21.6368 12.4526L21.2071 12.0937C21.1075 12.0123 20.9639 12.0123 20.8643 12.0948L20.6885 12.2416C20.0618 12.7623 19.2732 13.0484 18.4589 13.0484H18.2167C17.4078 13.0484 16.6235 12.7666 16 12.2512L15.8028 12.0884C15.7032 12.0069 15.5607 12.0069 15.4621 12.0884L15.2639 12.2523C14.6393 12.7666 13.855 13.0484 13.0471 13.0484H12.9003C12.1021 13.0484 11.3275 12.7741 10.7082 12.2716L10.4768 12.0841C10.3771 12.0037 10.2346 12.0048 10.1371 12.0862L9.95175 12.2416C9.32496 12.7634 8.53639 13.0484 7.72211 13.0484H7.53139C6.72461 13.0484 5.94354 12.7687 5.31996 12.2566L5.11211 12.0851C5.01247 12.0037 4.87104 12.0037 4.77139 12.0851L4.26675 12.5009C4.13496 12.6091 3.99139 12.7034 3.84139 12.7805H3.89282V22.4234C3.89282 22.8669 4.25282 23.2269 4.69639 23.2269H9.24996V16.5305C9.24996 15.7912 9.84997 15.1912 10.5893 15.1912H15.4107C16.15 15.1912 16.75 15.7912 16.75 16.5305V23.2269ZM1.93532 7.1555H24.0646C24.0357 7.05907 24.0046 6.96371 23.9693 6.86943L22.736 3.518C22.4532 2.80336 21.7621 2.33407 20.9939 2.33407H5.00711C4.23782 2.33407 3.54675 2.80336 3.27032 3.49979L2.03068 6.86943C1.99532 6.96371 1.96425 7.05907 1.93532 7.1555ZM24.25 8.76264H1.74997V10.6376C1.74997 11.0812 2.10997 11.4412 2.55354 11.4412H2.73675C2.92318 11.4412 3.10318 11.3769 3.24675 11.2591L3.75139 10.8444C4.44246 10.2755 5.44104 10.2755 6.13211 10.8444L6.33996 11.0148C6.67532 11.2901 7.09639 11.4412 7.53139 11.4412H7.72211C8.16032 11.4412 8.58568 11.288 8.92211 11.0073L9.10854 10.8519C9.79639 10.2787 10.7939 10.2723 11.4882 10.8359L11.7196 11.0223C12.0539 11.2934 12.4707 11.4412 12.9003 11.4412H13.0471C13.4821 11.4412 13.9043 11.2891 14.2407 11.0126L14.4389 10.8487C15.131 10.2766 16.1328 10.2766 16.826 10.8487L17.0232 11.0126C17.3585 11.2891 17.7807 11.4412 18.2167 11.4412H18.4589C18.8971 11.4412 19.3225 11.2869 19.66 11.0062L19.8357 10.8605C20.53 10.2798 21.5414 10.2798 22.2357 10.8594L22.6664 11.2184C22.8389 11.3619 23.0575 11.4412 23.2835 11.4412C23.8182 11.4412 24.25 11.0094 24.25 10.4769V8.76264ZM23.7143 13.013V22.4234C23.7143 23.7551 22.6353 24.8341 21.3035 24.8341H4.69639C3.36461 24.8341 2.28568 23.7551 2.28568 22.4234V13.0334C1.08032 12.9005 0.142822 11.8784 0.142822 10.6376V8.44229C0.142822 7.71479 0.271394 6.99479 0.522108 6.31336L1.76925 2.9255C2.29639 1.598 3.57889 0.726929 5.00711 0.726929H20.9939C22.421 0.726929 23.7035 1.598 24.2371 2.94371L25.4778 6.31336C25.7285 6.99479 25.8571 7.71479 25.8571 8.44229V10.4769C25.8571 11.7509 24.9303 12.8084 23.7143 13.013ZM15.1428 23.2269V16.7984H10.8571V23.2269H15.1428Z" fill="white"/>
</svg>
