<!DOCTYPE svg PUBLIC "-//W3C//DTD SVG 1.1//EN" "http://www.w3.org/Graphics/SVG/1.1/DTD/svg11.dtd">
<!-- Uploaded to: SVG Repo, www.svgrepo.com, Transformed by: SVG Repo Mixer Tools -->
<svg fill="#ffffff" width="64px" height="64px" viewBox="0 0 256 256" id="Flat" xmlns="http://www.w3.org/2000/svg" stroke="#ffffff">
<g id="SVGRepo_bgCarrier" stroke-width="0"/>
<g id="SVGRepo_tracerCarrier" stroke-linecap="round" stroke-linejoin="round"/>
<g id="SVGRepo_iconCarrier"> <path d="M128,24A104.02809,104.02809,0,0,0,36.811,178.041l-8.54737,29.915a16.00023,16.00023,0,0,0,19.77979,19.78027l29.916-8.54639A104.00746,104.00746,0,1,0,128,24Zm53.65674,93.65674-32,32a7.99945,7.99945,0,0,1-11.31348,0L112,123.3135,85.65674,149.65676a7.99984,7.99984,0,1,1-11.31348-11.31348l32-32a8,8,0,0,1,11.31348,0L144,132.68654l26.34326-26.34326a7.99984,7.99984,0,0,1,11.31348,11.31348Z"/> </g>
</svg>