<svg width="16" height="17" viewBox="0 0 16 17" fill="none" xmlns="http://www.w3.org/2000/svg">
<path d="M0.367188 6.89062C0.367188 6.03125 0.528646 5.22656 0.851562 4.47656C1.17448 3.72135 1.6224 3.05729 2.19531 2.48438C2.76823 1.91146 3.42969 1.46354 4.17969 1.14062C4.9349 0.817708 5.74219 0.65625 6.60156 0.65625C7.46094 0.65625 8.26562 0.817708 9.01562 1.14062C9.77083 1.46354 10.4349 1.91146 11.0078 2.48438C11.5807 3.05729 12.0286 3.72135 12.3516 4.47656C12.6745 5.22656 12.8359 6.03125 12.8359 6.89062C12.8359 7.60417 12.7214 8.28125 12.4922 8.92188C12.2682 9.5625 11.9557 10.1432 11.5547 10.6641L15.375 14.5078C15.4583 14.5911 15.5208 14.6875 15.5625 14.7969C15.6094 14.9062 15.6328 15.0234 15.6328 15.1484C15.6328 15.3203 15.5938 15.4766 15.5156 15.6172C15.4427 15.7578 15.3385 15.8672 15.2031 15.9453C15.0677 16.0286 14.9115 16.0703 14.7344 16.0703C14.6094 16.0703 14.4896 16.0469 14.375 16C14.2656 15.9583 14.1641 15.8932 14.0703 15.8047L10.2266 11.9531C9.71615 12.3177 9.15365 12.6042 8.53906 12.8125C7.92448 13.0208 7.27865 13.125 6.60156 13.125C5.74219 13.125 4.9349 12.9635 4.17969 12.6406C3.42969 12.3177 2.76823 11.8698 2.19531 11.2969C1.6224 10.724 1.17448 10.0625 0.851562 9.3125C0.528646 8.55729 0.367188 7.75 0.367188 6.89062ZM1.70312 6.89062C1.70312 7.56771 1.82812 8.20312 2.07812 8.79688C2.33333 9.38542 2.6849 9.90365 3.13281 10.3516C3.58594 10.7995 4.10677 11.151 4.69531 11.4062C5.28906 11.6615 5.92448 11.7891 6.60156 11.7891C7.27865 11.7891 7.91146 11.6615 8.5 11.4062C9.09375 11.151 9.61458 10.7995 10.0625 10.3516C10.5104 9.90365 10.862 9.38542 11.1172 8.79688C11.3724 8.20312 11.5 7.56771 11.5 6.89062C11.5 6.21354 11.3724 5.58073 11.1172 4.99219C10.862 4.39844 10.5104 3.8776 10.0625 3.42969C9.61458 2.97656 9.09375 2.625 8.5 2.375C7.91146 2.11979 7.27865 1.99219 6.60156 1.99219C5.92448 1.99219 5.28906 2.11979 4.69531 2.375C4.10677 2.625 3.58594 2.97656 3.13281 3.42969C2.6849 3.8776 2.33333 4.39844 2.07812 4.99219C1.82812 5.58073 1.70312 6.21354 1.70312 6.89062Z" fill="white"/>
</svg>
