<svg width="14" height="8" viewBox="0 0 14 8" fill="none" xmlns="http://www.w3.org/2000/svg">
<path d="M2.87355 0.380749C2.63721 0.15249 2.32068 0.0261535 1.99213 0.0290085C1.66358 0.0318636 1.34928 0.163638 1.11695 0.395969C0.884615 0.6283 0.752841 0.942598 0.749986 1.27115C0.747131 1.59971 0.87343 1.9162 1.10169 2.15253L6.11401 7.16485C6.349 7.39977 6.66767 7.53181 6.99994 7.53181C7.33221 7.53181 7.65088 7.39977 7.88587 7.16485L12.8982 2.15253C13.1264 1.9162 13.2527 1.59971 13.2499 1.27115C13.247 0.942598 13.1153 0.6283 12.8829 0.395969C12.6506 0.163638 12.3363 0.0318636 12.0077 0.0290085C11.6792 0.0261535 11.3627 0.15249 11.1263 0.380749L6.99994 4.5071L2.87355 0.380749Z" fill="white" fill-opacity="0.9"/>
</svg>
