<svg width="28" height="26" viewBox="0 0 28 26" fill="none" xmlns="http://www.w3.org/2000/svg">
<path d="M22.161 14.7582C25.3254 14.7582 27.5385 17.3815 27.5385 20.6079C27.5385 22.2308 26.2243 23.5494 24.6106 23.5494H23.6827C23.2766 23.5494 22.9715 23.2013 23.0202 22.8075C23.0437 22.6018 23.0563 22.3925 23.0563 22.1798V21.3059C23.0563 19.2734 22.4245 17.3798 21.3415 15.7974C21.0382 15.3525 21.3415 14.7582 21.8866 14.7582H22.161ZM20.7692 13C18.7782 13 17.159 11.2259 17.159 9.04396C17.159 6.6422 18.576 5.08791 20.7692 5.08791C22.9625 5.08791 24.3795 6.6422 24.3795 9.04396C24.3795 11.2259 22.7603 13 20.7692 13ZM12.5054 13.8791C16.8124 13.8791 20.318 17.211 20.318 21.3059V22.1798C20.318 23.9046 18.8432 25.3077 17.0272 25.3077H3.7523C1.93634 25.3077 0.461548 23.9046 0.461548 22.1798V21.3059C0.461548 17.211 3.9653 13.8791 8.27414 13.8791H12.5054ZM15.3539 5.96703C15.3539 8.87692 13.1281 11.2418 10.3898 11.2418C7.65318 11.2418 5.42565 8.87692 5.42565 5.96703C5.42565 2.71428 7.32826 0.692307 10.3898 0.692307C13.4531 0.692307 15.3539 2.71428 15.3539 5.96703Z" fill="white"/>
</svg>
