<svg width="16" height="16" viewBox="0 0 16 16" fill="none" xmlns="http://www.w3.org/2000/svg">
<path d="M15 1.00163C15 0.59855 14.7563 0.232964 14.3813 0.0767313C14.0063 -0.0795017 13.5781 0.00798881 13.2906 0.292333L11.9281 1.65781C10.4281 3.15765 8.39375 4.0013 6.27187 4.0013H6H5H2C0.896875 4.0013 0 4.89808 0 6.00109V9.00076C0 10.1038 0.896875 11.0005 2 11.0005V15.0001C2 15.5532 2.44688 16 3 16H5C5.55312 16 6 15.5532 6 15.0001V11.0005H6.27187C8.39375 11.0005 10.4281 11.8442 11.9281 13.344L13.2906 14.7064C13.5781 14.9939 14.0063 15.0782 14.3813 14.922C14.7563 14.7658 15 14.4033 15 13.9971V9.38822C15.5813 9.11325 16 8.3727 16 7.50092C16 6.62914 15.5813 5.8886 15 5.61363V1.00163ZM13 3.39825V7.50092V11.6036C11.1625 9.93191 8.76562 9.00076 6.27187 9.00076H6V6.00109H6.27187C8.76562 6.00109 11.1625 5.06994 13 3.39825Z" fill="white"/>
</svg>
