<svg width="26" height="26" viewBox="0 0 26 26" fill="none" xmlns="http://www.w3.org/2000/svg">
<path d="M7.06522 26C6.59722 26 6.21739 25.6117 6.21739 25.1333C6.21739 24.6549 6.59722 24.2667 7.06522 24.2667H18.9348C19.4028 24.2667 19.7826 24.6549 19.7826 25.1333C19.7826 25.6117 19.4028 26 18.9348 26H7.06522ZM16.5756 11.6665L10.8013 15.2221C10.2768 15.5445 9.6087 15.1597 9.6087 14.5334V7.42098C9.6087 6.79582 10.2768 6.40987 10.8013 6.73227L16.5756 10.2891C17.0831 10.6011 17.0831 11.3533 16.5756 11.6665ZM21.7609 20.2222C23.1649 20.2222 24.3043 19.0574 24.3043 17.6222V4.33333C24.3043 2.89813 23.1649 1.73333 21.7609 1.73333H4.23913C2.83513 1.73333 1.69565 2.89813 1.69565 4.33333V17.6222C1.69565 19.0574 2.83513 20.2222 4.23913 20.2222H21.7609ZM21.7609 21.9556H4.23913C1.898 21.9556 0 20.0154 0 17.6222V4.33333C0 1.94018 1.898 0 4.23913 0H21.7609C24.102 0 26 1.94018 26 4.33333V17.6222C26 20.0154 24.102 21.9556 21.7609 21.9556Z" fill="white"/>
</svg>
